<svg xmlns="http://www.w3.org/2000/svg" width="116.923" height="20">
    <defs>
        <style>
            .cls-1{fill:#bebecc;fill-rule:evenodd}
        </style>
    </defs>
    <g id="Logo" transform="translate(-56 -43.002)">
        <path id="Text" class="cls-1" d="M37.071 4.651h4.191a3.752 3.752 0 0 1 3.988 3.833 3.749 3.749 0 0 1-3.987 3.833h-1.625v3.33h-2.567zm2.565 5.309h1.33c1.079 0 1.658-.581 1.658-1.477s-.578-1.476-1.658-1.476h-1.33zm9.755-2.108a2.877 2.877 0 0 1 1.239-.217h.86v2.357h-1.2c-1.111 0-1.611.565-1.611 1.759v3.9h-2.44V7.635h1.689l.438.942a2.88 2.88 0 0 1 1.025-.724zm8.509 7.8a4.245 4.245 0 1 1 1.463-.906 4.238 4.238 0 0 1-1.463.902zm-2.5-2.082a2.02 2.02 0 0 0 2.848-1.925 2.05 2.05 0 1 0-4.1 0 1.967 1.967 0 0 0 1.25 1.925zm12.776-5.165.344-.77h1.69v6.945a3.972 3.972 0 0 1-4.349 4.351c-2.455 0-4.047-1.2-4.379-2.952H64a1.759 1.759 0 0 0 1.782.911c1.314 0 1.971-.662 1.971-1.856v-.3a4.075 4.075 0 0 1-2.33.675 3.878 3.878 0 0 1-4.109-4.005A3.862 3.862 0 0 1 65.379 7.4a4.071 4.071 0 0 1 2.797 1.005zm-3.144 4.777a1.887 1.887 0 0 0 .767.094 1.879 1.879 0 1 0-.767-.092zm9.8-5.329a2.877 2.877 0 0 1 1.239-.217h.861v2.356h-1.2c-1.111 0-1.611.565-1.611 1.759v3.9H71.68V7.635h1.689l.438.942a2.881 2.881 0 0 1 1.028-.724zM85.587 9.9a4.132 4.132 0 0 1 .325 1.66 3.668 3.668 0 0 1-.064.8h-6.224a1.821 1.821 0 0 0 1.976 1.558 1.885 1.885 0 0 0 1.64-.754h2.5a4.233 4.233 0 0 1-4.192 2.736 4.15 4.15 0 0 1-4.393-4.257 4.156 4.156 0 0 1 4.363-4.257A4.129 4.129 0 0 1 85.587 9.9zm-2.847-.188a1.765 1.765 0 0 0-1.193-.349 1.86 1.86 0 0 0-1.861 1.4h3.722a1.769 1.769 0 0 0-.668-1.051zm10.909 3.562c0 1.461-1.154 2.623-3.422 2.623-2.518 0-3.628-1.131-3.724-2.719H89c.094.534.469.832 1.22.832.672 0 .938-.266.938-.643 0-.455-.579-.613-1.5-.832-1.3-.314-2.956-.738-2.956-2.56 0-1.414 1.173-2.592 3.331-2.592 2.237 0 3.347 1.162 3.441 2.623h-2.468a.849.849 0 0 0-.97-.738c-.579 0-.845.267-.845.581 0 .455.582.613 1.486.8 1.267.269 2.972.693 2.972 2.625zm7.71 0c0 1.461-1.154 2.623-3.422 2.623-2.518 0-3.628-1.131-3.724-2.719h2.5c.094.534.469.832 1.22.832.672 0 .938-.266.938-.643 0-.455-.579-.613-1.5-.832-1.3-.314-2.956-.738-2.956-2.56 0-1.414 1.173-2.592 3.331-2.592 2.239 0 3.351 1.162 3.439 2.623h-2.47a.849.849 0 0 0-.97-.738c-.578 0-.844.267-.844.581 0 .455.579.613 1.486.8 1.267.269 2.972.693 2.972 2.625zm13.155-8.623 1.658 11h-2.6l-.948-6.783-2.83 6.283h-1.424l-2.818-6.27-.97 6.77h-2.6l1.658-11h2.6l2.831 6.33 2.846-6.33zM125.151 9.9a4.132 4.132 0 0 1 .325 1.66 3.712 3.712 0 0 1-.063.8h-6.223a1.821 1.821 0 0 0 1.973 1.556 1.885 1.885 0 0 0 1.64-.754h2.5a4.233 4.233 0 0 1-4.191 2.733 4.15 4.15 0 0 1-4.395-4.257 4.156 4.156 0 0 1 4.363-4.257 4.129 4.129 0 0 1 4.071 2.519zm-2.845-.191a1.765 1.765 0 0 0-1.193-.349 1.859 1.859 0 0 0-1.862 1.4h3.722a1.769 1.769 0 0 0-.667-1.048z" transform="translate(47.445 41.93)"/>
        <g id="Icon" transform="translate(56 43.002)">
            <path id="Fire" class="cls-1" d="M2.783 17.135.315 23.326l6.171-2.477a2.856 2.856 0 1 0-3.7-3.715z" transform="translate(-.073 -3.54)"/>
            <path id="Arrow" class="cls-1" d="M11.2 11.726A2.921 2.921 0 0 0 8.281 8.8H2.194A2.2 2.2 0 0 1 .708 4.98l4.118-3.814A4.375 4.375 0 0 1 7.8 0h7.78a4.39 4.39 0 0 1 4.382 4.4v7.747a4.405 4.405 0 0 1-1.152 2.971L15 19.288a2.192 2.192 0 0 1-3.8-1.488z"/>
        </g>
    </g>
</svg>
