<svg width="10" height="8" viewBox="0 0 10 8" fill="none" xmlns="http://www.w3.org/2000/svg">
<path d="M9.29976 0.846253L3.54184 6.60375C3.50313 6.64262 3.45712 6.67346 3.40646 6.6945C3.3558 6.71554 3.30149 6.72637 3.24663 6.72637C3.19177 6.72637 3.13746 6.71554 3.0868 6.6945C3.03614 6.67346 2.99013 6.64262 2.95142 6.60375L0.724756 4.375C0.686044 4.33614 0.640038 4.3053 0.589378 4.28426C0.538719 4.26321 0.484403 4.25238 0.429548 4.25238C0.374692 4.25238 0.320376 4.26321 0.269717 4.28426C0.219057 4.3053 0.173052 4.33614 0.134339 4.375C0.0954739 4.41372 0.0646354 4.45972 0.043593 4.51038C0.0225507 4.56104 0.0117187 4.61536 0.0117188 4.67021C0.0117187 4.72507 0.0225507 4.77938 0.043593 4.83004C0.0646354 4.8807 0.0954739 4.92671 0.134339 4.96542L2.36184 7.1925C2.59682 7.42705 2.91525 7.55877 3.24726 7.55877C3.57926 7.55877 3.89769 7.42705 4.13267 7.1925L9.89017 1.43625C9.92897 1.39755 9.95976 1.35157 9.98076 1.30095C10.0018 1.25033 10.0126 1.19606 10.0126 1.14125C10.0126 1.08645 10.0018 1.03218 9.98076 0.981559C9.95976 0.930938 9.92897 0.884958 9.89017 0.846253C9.85146 0.807388 9.80545 0.77655 9.75479 0.755507C9.70413 0.734465 9.64982 0.723633 9.59496 0.723633C9.54011 0.723633 9.48579 0.734465 9.43513 0.755507C9.38447 0.77655 9.33847 0.807388 9.29976 0.846253Z" fill="white"/>
</svg>
