<svg width="32" height="32" viewBox="0 0 32 32" fill="none" xmlns="http://www.w3.org/2000/svg">
<rect y="32" width="32" height="32" rx="5" transform="rotate(-90 0 32)" fill="#586EB9"/>
<g clip-path="url(#clip0_3599_475)">
<path d="M20.2998 12.8463L14.5418 18.6038C14.5031 18.6426 14.4571 18.6735 14.4065 18.6945C14.3558 18.7155 14.3015 18.7264 14.2466 18.7264C14.1918 18.7264 14.1375 18.7155 14.0868 18.6945C14.0361 18.6735 13.9901 18.6426 13.9514 18.6038L11.7248 16.375C11.686 16.3361 11.64 16.3053 11.5894 16.2843C11.5387 16.2632 11.4844 16.2524 11.4295 16.2524C11.3747 16.2524 11.3204 16.2632 11.2697 16.2843C11.2191 16.3053 11.1731 16.3361 11.1343 16.375C11.0955 16.4137 11.0646 16.4597 11.0436 16.5104C11.0226 16.561 11.0117 16.6154 11.0117 16.6702C11.0117 16.7251 11.0226 16.7794 11.0436 16.83C11.0646 16.8807 11.0955 16.9267 11.1343 16.9654L13.3618 19.1925C13.5968 19.427 13.9153 19.5588 14.2473 19.5588C14.5793 19.5588 14.8977 19.427 15.1327 19.1925L20.8902 13.4363C20.929 13.3975 20.9598 13.3516 20.9808 13.3009C21.0018 13.2503 21.0126 13.1961 21.0126 13.1413C21.0126 13.0864 21.0018 13.0322 20.9808 12.9816C20.9598 12.9309 20.929 12.885 20.8902 12.8463C20.8515 12.8074 20.8055 12.7765 20.7548 12.7555C20.7041 12.7345 20.6498 12.7236 20.595 12.7236C20.5401 12.7236 20.4858 12.7345 20.4351 12.7555C20.3845 12.7765 20.3385 12.8074 20.2998 12.8463Z" fill="white"/>
</g>
<defs>
<clipPath id="clip0_3599_475">
<rect width="10" height="10" fill="white" transform="translate(11 11)"/>
</clipPath>
</defs>
</svg>
