<svg width="43" height="43" viewBox="0 0 43 43" fill="none" xmlns="http://www.w3.org/2000/svg">
<rect width="43" height="43" rx="7" fill="#1D1E42"/>
<path d="M26.625 19.6247H17.875L20.7537 16.746C20.8358 16.6646 20.9009 16.5678 20.9453 16.4612C20.9897 16.3546 21.0126 16.2402 21.0126 16.1247C21.0126 16.0092 20.9897 15.8948 20.9453 15.7882C20.9009 15.6816 20.8358 15.5848 20.7537 15.5035C20.5898 15.3405 20.368 15.249 20.1369 15.249C19.9057 15.249 19.6839 15.3405 19.52 15.5035L15.7663 19.266C15.4376 19.5926 15.252 20.0363 15.25 20.4997C15.2543 20.9601 15.4397 21.4002 15.7663 21.7247L19.52 25.4872C19.6016 25.5682 19.6983 25.6324 19.8047 25.676C19.9111 25.7196 20.025 25.7418 20.14 25.7414C20.2549 25.741 20.3687 25.718 20.4748 25.6736C20.5808 25.6292 20.6771 25.5644 20.7581 25.4828C20.8391 25.4012 20.9033 25.3045 20.9469 25.1981C20.9905 25.0918 21.0128 24.9778 21.0124 24.8629C21.012 24.7479 20.9889 24.6341 20.9445 24.5281C20.9002 24.422 20.8353 24.3257 20.7537 24.2447L17.875 21.3747H26.625C26.8571 21.3747 27.0796 21.2825 27.2437 21.1184C27.4078 20.9543 27.5 20.7318 27.5 20.4997C27.5 20.2676 27.4078 20.0451 27.2437 19.881C27.0796 19.7169 26.8571 19.6247 26.625 19.6247Z" fill="white"/>
</svg>
