<svg width="21" height="21" viewBox="0 0 21 21" fill="none" xmlns="http://www.w3.org/2000/svg">
<path d="M16.625 9.62499H7.875L10.7537 6.74624C10.8358 6.6649 10.9009 6.56812 10.9453 6.46149C10.9897 6.35487 11.0126 6.2405 11.0126 6.12499C11.0126 6.00948 10.9897 5.89511 10.9453 5.78849C10.9009 5.68186 10.8358 5.58508 10.7537 5.50374C10.5898 5.34077 10.368 5.2493 10.1369 5.2493C9.90571 5.2493 9.68394 5.34077 9.52 5.50374L5.76625 9.26624C5.43761 9.59292 5.25195 10.0366 5.25 10.5C5.25426 10.9603 5.43974 11.4004 5.76625 11.725L9.52 15.4875C9.60158 15.5685 9.69832 15.6326 9.8047 15.6763C9.91107 15.7199 10.025 15.7421 10.14 15.7417C10.2549 15.7413 10.3687 15.7183 10.4748 15.6739C10.5808 15.6295 10.6771 15.5647 10.7581 15.4831C10.8391 15.4015 10.9033 15.3048 10.9469 15.1984C10.9905 15.092 11.0128 14.9781 11.0124 14.8631C11.012 14.7482 10.9889 14.6344 10.9445 14.5283C10.9002 14.4223 10.8353 14.326 10.7537 14.245L7.875 11.375H16.625C16.8571 11.375 17.0796 11.2828 17.2437 11.1187C17.4078 10.9546 17.5 10.732 17.5 10.5C17.5 10.2679 17.4078 10.0454 17.2437 9.88127C17.0796 9.71717 16.8571 9.62499 16.625 9.62499Z" fill="white"/>
</svg>
