<svg width="32" height="32" viewBox="0 0 32 32" fill="none" xmlns="http://www.w3.org/2000/svg">
<rect y="32" width="32" height="32" rx="5" transform="rotate(-90 0 32)" fill="#1D1E42"/>
<path d="M20.8778 11.122C20.7997 11.0439 20.6937 11 20.5832 11C20.4728 11 20.3668 11.0439 20.2887 11.122L15.9999 15.4107L11.7112 11.122C11.633 11.0439 11.5271 11 11.4166 11C11.3061 11 11.2001 11.0439 11.122 11.122C11.0439 11.2001 11 11.3061 11 11.4166C11 11.5271 11.0439 11.633 11.122 11.7112L15.4107 15.9999L11.122 20.2887C11.0439 20.3668 11 20.4728 11 20.5832C11 20.6937 11.0439 20.7997 11.122 20.8778C11.2001 20.9559 11.3061 20.9998 11.4166 20.9998C11.5271 20.9998 11.633 20.9559 11.7112 20.8778L15.9999 16.5891L20.2887 20.8778C20.3668 20.9559 20.4728 20.9998 20.5832 20.9998C20.6937 20.9998 20.7997 20.9559 20.8778 20.8778C20.9559 20.7997 20.9998 20.6937 20.9998 20.5832C20.9998 20.4728 20.9559 20.3668 20.8778 20.2887L16.5891 15.9999L20.8778 11.7112C20.9559 11.633 20.9998 11.5271 20.9998 11.4166C20.9998 11.3061 20.9559 11.2001 20.8778 11.122Z" fill="#586EB9"/>
</svg>
