<svg width="10" height="10" viewBox="0 0 10 10" fill="none" xmlns="http://www.w3.org/2000/svg">
<path d="M9.87783 0.121994C9.79969 0.0438814 9.69373 0 9.58324 0C9.47276 0 9.3668 0.0438814 9.28866 0.121994L4.99991 4.41074L0.711161 0.121994C0.633025 0.0438814 0.527063 0 0.416578 0C0.306093 0 0.200131 0.0438814 0.121994 0.121994C0.0438814 0.200131 0 0.306093 0 0.416578C0 0.527063 0.0438814 0.633025 0.121994 0.711161L4.41074 4.99991L0.121994 9.28866C0.0438814 9.3668 0 9.47276 0 9.58324C0 9.69373 0.0438814 9.79969 0.121994 9.87783C0.200131 9.95594 0.306093 9.99982 0.416578 9.99982C0.527063 9.99982 0.633025 9.95594 0.711161 9.87783L4.99991 5.58908L9.28866 9.87783C9.3668 9.95594 9.47276 9.99982 9.58324 9.99982C9.69373 9.99982 9.79969 9.95594 9.87783 9.87783C9.95594 9.79969 9.99982 9.69373 9.99982 9.58324C9.99982 9.47276 9.95594 9.3668 9.87783 9.28866L5.58908 4.99991L9.87783 0.711161C9.95594 0.633025 9.99982 0.527063 9.99982 0.416578C9.99982 0.306093 9.95594 0.200131 9.87783 0.121994Z" fill="#586EB9"/>
</svg>
