<svg width="47" height="47" viewBox="0 0 47 47" fill="none" xmlns="http://www.w3.org/2000/svg">
<rect width="47" height="47" rx="10" fill="#586EB9"/>
<path d="M27.875 22.625H24.375V19.125C24.375 18.8929 24.2828 18.6704 24.1187 18.5063C23.9546 18.3422 23.7321 18.25 23.5 18.25C23.2679 18.25 23.0454 18.3422 22.8813 18.5063C22.7172 18.6704 22.625 18.8929 22.625 19.125V22.625H19.125C18.8929 22.625 18.6704 22.7172 18.5063 22.8813C18.3422 23.0454 18.25 23.2679 18.25 23.5C18.25 23.7321 18.3422 23.9546 18.5063 24.1187C18.6704 24.2828 18.8929 24.375 19.125 24.375H22.625V27.875C22.625 28.1071 22.7172 28.3296 22.8813 28.4937C23.0454 28.6578 23.2679 28.75 23.5 28.75C23.7321 28.75 23.9546 28.6578 24.1187 28.4937C24.2828 28.3296 24.375 28.1071 24.375 27.875V24.375H27.875C28.1071 24.375 28.3296 24.2828 28.4937 24.1187C28.6578 23.9546 28.75 23.7321 28.75 23.5C28.75 23.2679 28.6578 23.0454 28.4937 22.8813C28.3296 22.7172 28.1071 22.625 27.875 22.625Z" fill="white"/>
</svg>
