<svg width="18" height="18" viewBox="0 0 18 18" fill="none" xmlns="http://www.w3.org/2000/svg">
<path d="M17.7801 0.21959C17.6394 0.0789866 17.4487 0 17.2498 0C17.051 0 16.8602 0.0789866 16.7196 0.21959L8.99984 7.93934L1.28009 0.21959C1.13944 0.0789866 0.948713 0 0.74984 0C0.550967 0 0.360236 0.0789866 0.21959 0.21959C0.0789866 0.360236 0 0.550967 0 0.74984C0 0.948713 0.0789866 1.13944 0.21959 1.28009L7.93934 8.99984L0.21959 16.7196C0.0789866 16.8602 0 17.051 0 17.2498C0 17.4487 0.0789866 17.6394 0.21959 17.7801C0.360236 17.9207 0.550967 17.9997 0.74984 17.9997C0.948713 17.9997 1.13944 17.9207 1.28009 17.7801L8.99984 10.0603L16.7196 17.7801C16.8602 17.9207 17.051 17.9997 17.2498 17.9997C17.4487 17.9997 17.6394 17.9207 17.7801 17.7801C17.9207 17.6394 17.9997 17.4487 17.9997 17.2498C17.9997 17.051 17.9207 16.8602 17.7801 16.7196L10.0603 8.99984L17.7801 1.28009C17.9207 1.13944 17.9997 0.948713 17.9997 0.74984C17.9997 0.550967 17.9207 0.360236 17.7801 0.21959Z" fill="#535486"/>
</svg>
