<svg width="38" height="38" viewBox="0 0 38 38" fill="none" xmlns="http://www.w3.org/2000/svg">
<rect width="38" height="38" rx="10" fill="#141431"/>
<g clip-path="url(#clip0_3604_1190)">
<path d="M18.5034 14.2892L18.4999 22.0082C18.4999 22.1408 18.5526 22.268 18.6464 22.3617C18.7401 22.4555 18.8673 22.5082 18.9999 22.5082C19.1325 22.5082 19.2597 22.4555 19.3535 22.3617C19.4472 22.268 19.4999 22.1408 19.4999 22.0082L19.5034 14.2977L20.9594 15.7542C21.0532 15.8479 21.1803 15.9006 21.3129 15.9006C21.4455 15.9006 21.5726 15.8479 21.6664 15.7542C21.7601 15.6604 21.8128 15.5333 21.8128 15.4007C21.8128 15.2681 21.7601 15.1409 21.6664 15.0472L20.0609 13.4397C19.9216 13.3003 19.7562 13.1897 19.5742 13.1143C19.3921 13.0388 19.197 13 18.9999 13C18.8028 13 18.6077 13.0388 18.4257 13.1143C18.2436 13.1897 18.0782 13.3003 17.9389 13.4397L16.3334 15.0457C16.2397 15.1394 16.187 15.2666 16.187 15.3992C16.187 15.5318 16.2397 15.6589 16.3334 15.7527C16.4272 15.8464 16.5543 15.8991 16.6869 15.8991C16.8195 15.8991 16.9466 15.8464 17.0404 15.7527L18.5034 14.2892Z" fill="#586EB9"/>
<path d="M24 21.5V23.5C24 23.6326 23.9473 23.7598 23.8536 23.8535C23.7598 23.9473 23.6326 24 23.5 24H14.5C14.3674 24 14.2402 23.9473 14.1464 23.8535C14.0527 23.7598 14 23.6326 14 23.5V21.5C14 21.3674 13.9473 21.2402 13.8536 21.1464C13.7598 21.0527 13.6326 21 13.5 21C13.3674 21 13.2402 21.0527 13.1464 21.1464C13.0527 21.2402 13 21.3674 13 21.5V23.5C13 23.8978 13.158 24.2793 13.4393 24.5607C13.7206 24.842 14.1022 25 14.5 25H23.5C23.8978 25 24.2794 24.842 24.5607 24.5607C24.842 24.2793 25 23.8978 25 23.5V21.5C25 21.3674 24.9473 21.2402 24.8536 21.1464C24.7598 21.0527 24.6326 21 24.5 21C24.3674 21 24.2402 21.0527 24.1464 21.1464C24.0527 21.2402 24 21.3674 24 21.5Z" fill="#586EB9"/>
</g>
<defs>
<clipPath id="clip0_3604_1190">
<rect width="12" height="12" fill="white" transform="translate(13 13)"/>
</clipPath>
</defs>
</svg>
