<svg width="28" height="28" viewBox="0 0 28 28" fill="none" xmlns="http://www.w3.org/2000/svg">
<rect width="28" height="28" rx="5" fill="#141431"/>
<g clip-path="url(#clip0_3604_1030)">
<path d="M14 6C12.4178 6 10.871 6.46919 9.55544 7.34824C8.23985 8.22729 7.21447 9.47672 6.60897 10.9385C6.00347 12.4003 5.84504 14.0089 6.15372 15.5607C6.4624 17.1126 7.22433 18.538 8.34315 19.6569C9.46197 20.7757 10.8874 21.5376 12.4393 21.8463C13.9911 22.155 15.5997 21.9965 17.0615 21.391C18.5233 20.7855 19.7727 19.7602 20.6518 18.4446C21.5308 17.129 22 15.5823 22 14C21.9977 11.879 21.1541 9.84547 19.6543 8.34568C18.1545 6.84589 16.121 6.00229 14 6V6ZM14 20.6667C12.6815 20.6667 11.3925 20.2757 10.2962 19.5431C9.19987 18.8106 8.34539 17.7694 7.84081 16.5512C7.33622 15.333 7.2042 13.9926 7.46144 12.6994C7.71867 11.4062 8.35361 10.2183 9.28596 9.28596C10.2183 8.35361 11.4062 7.71867 12.6994 7.46143C13.9926 7.2042 15.3331 7.33622 16.5512 7.8408C17.7694 8.34539 18.8106 9.19987 19.5431 10.2962C20.2757 11.3925 20.6667 12.6815 20.6667 14C20.6647 15.7675 19.9617 17.4621 18.7119 18.7119C17.4621 19.9617 15.7675 20.6647 14 20.6667Z" fill="#586EB9"/>
<path d="M13.9998 12.667H13.3332C13.1564 12.667 12.9868 12.7372 12.8618 12.8623C12.7367 12.9873 12.6665 13.1568 12.6665 13.3337C12.6665 13.5105 12.7367 13.68 12.8618 13.8051C12.9868 13.9301 13.1564 14.0003 13.3332 14.0003H13.9998V18.0003C13.9998 18.1771 14.0701 18.3467 14.1951 18.4717C14.3201 18.5968 14.4897 18.667 14.6665 18.667C14.8433 18.667 15.0129 18.5968 15.1379 18.4717C15.2629 18.3467 15.3332 18.1771 15.3332 18.0003V14.0003C15.3332 13.6467 15.1927 13.3076 14.9426 13.0575C14.6926 12.8075 14.3535 12.667 13.9998 12.667Z" fill="#586EB9"/>
<path d="M14 11.333C14.5523 11.333 15 10.8853 15 10.333C15 9.78072 14.5523 9.33301 14 9.33301C13.4477 9.33301 13 9.78072 13 10.333C13 10.8853 13.4477 11.333 14 11.333Z" fill="#586EB9"/>
</g>
<defs>
<clipPath id="clip0_3604_1030">
<rect width="16" height="16" fill="white" transform="translate(6 6)"/>
</clipPath>
</defs>
</svg>
