<svg width="17" height="17" viewBox="0 0 17 17" fill="none" xmlns="http://www.w3.org/2000/svg">
<path d="M11.1846 13.2528C11.251 13.187 11.3037 13.1086 11.3396 13.0223C11.3756 12.936 11.3941 12.8434 11.3941 12.7499C11.3941 12.6564 11.3756 12.5638 11.3396 12.4775C11.3037 12.3912 11.251 12.3128 11.1846 12.247L7.94042 9.00283C7.87403 8.93698 7.82133 8.85864 7.78537 8.77232C7.74941 8.686 7.7309 8.59342 7.7309 8.49991C7.7309 8.4064 7.74941 8.31382 7.78537 8.2275C7.82133 8.14118 7.87403 8.06284 7.94042 7.99699L11.1846 4.75283C11.251 4.68698 11.3037 4.60864 11.3396 4.52232C11.3756 4.436 11.3941 4.34342 11.3941 4.24991C11.3941 4.1564 11.3756 4.06382 11.3396 3.9775C11.3037 3.89118 11.251 3.81284 11.1846 3.74699C11.0519 3.61507 10.8723 3.54102 10.6852 3.54102C10.4981 3.54102 10.3185 3.61507 10.1858 3.74699L6.93459 6.99824C6.53665 7.39668 6.31313 7.93678 6.31313 8.49991C6.31313 9.06304 6.53665 9.60314 6.93459 10.0016L10.1858 13.2528C10.3185 13.3848 10.4981 13.4588 10.6852 13.4588C10.8723 13.4588 11.0519 13.3848 11.1846 13.2528Z" fill="#586EB9"/>
</svg>
