<svg width="16" height="16" viewBox="0 0 16 16" fill="none" xmlns="http://www.w3.org/2000/svg">
<path fill-rule="evenodd" clip-rule="evenodd" d="M8 13.3699C10.9657 13.3699 13.3699 10.9657 13.3699 8C13.3699 5.03431 10.9657 2.63014 8 2.63014C5.03431 2.63014 2.63014 5.03431 2.63014 8C2.63014 10.9657 5.03431 13.3699 8 13.3699ZM8 16C12.4183 16 16 12.4183 16 8C16 3.58172 12.4183 0 8 0C3.58172 0 0 3.58172 0 8C0 12.4183 3.58172 16 8 16Z" fill="#2D2D54"/>
<path fill-rule="evenodd" clip-rule="evenodd" d="M10.6301 0.439727C10.1923 0.289008 9.74199 0.176212 9.2844 0.102614C8.58107 -0.0105088 8 0.577485 8 1.28985C8 2.00221 8.58536 2.56454 9.27785 2.73161C9.7197 2.83821 10.1478 3.00006 10.5515 3.21453C11.3359 3.63125 12.0037 4.23362 12.4953 4.96781C12.9868 5.702 13.2868 6.54516 13.3684 7.42195C13.4092 7.86104 13.3947 8.30172 13.3263 8.73408C13.2133 9.44869 13.5066 10.2205 14.1737 10.5004L15.3613 10.9987C15.3631 10.9994 15.3652 10.9986 15.3659 10.9968C15.716 10.18 15.9234 9.31354 15.9824 8.43416C16.0103 8.01957 16.0051 7.6021 15.9663 7.18559C15.8453 5.88449 15.4001 4.6333 14.6707 3.5438C13.9413 2.45431 12.9503 1.56044 11.7863 0.942045C11.4136 0.744086 11.027 0.57633 10.6301 0.439727Z" fill="#586EB9"/>
</svg>
