<svg width="28" height="28" viewBox="0 0 28 28" fill="none" xmlns="http://www.w3.org/2000/svg">
<rect width="28" height="28" rx="5" fill="#1D1E42"/>
<g clip-path="url(#clip0_3604_1005)">
<path d="M11.25 8C10.7859 8 10.3408 8.18437 10.0126 8.51256C9.68437 8.84075 9.5 9.28587 9.5 9.75V18.25C9.5 18.7141 9.68437 19.1592 10.0126 19.4874C10.3408 19.8156 10.7859 20 11.25 20C11.7141 20 12.1592 19.8156 12.4874 19.4874C12.8156 19.1592 13 18.7141 13 18.25V9.75C13 9.28587 12.8156 8.84075 12.4874 8.51256C12.1592 8.18437 11.7141 8 11.25 8ZM12 18.25C12 18.4489 11.921 18.6397 11.7803 18.7803C11.6397 18.921 11.4489 19 11.25 19C11.0511 19 10.8603 18.921 10.7197 18.7803C10.579 18.6397 10.5 18.4489 10.5 18.25V9.75C10.5 9.55109 10.579 9.36032 10.7197 9.21967C10.8603 9.07902 11.0511 9 11.25 9C11.4489 9 11.6397 9.07902 11.7803 9.21967C11.921 9.36032 12 9.55109 12 9.75V18.25Z" fill="#586EB9"/>
<path d="M16.75 8C16.2859 8 15.8408 8.18437 15.5126 8.51256C15.1844 8.84075 15 9.28587 15 9.75V18.25C15 18.7141 15.1844 19.1592 15.5126 19.4874C15.8408 19.8156 16.2859 20 16.75 20C17.2141 20 17.6592 19.8156 17.9874 19.4874C18.3156 19.1592 18.5 18.7141 18.5 18.25V9.75C18.5 9.28587 18.3156 8.84075 17.9874 8.51256C17.6592 8.18437 17.2141 8 16.75 8ZM17.5 18.25C17.5 18.4489 17.421 18.6397 17.2803 18.7803C17.1397 18.921 16.9489 19 16.75 19C16.5511 19 16.3603 18.921 16.2197 18.7803C16.079 18.6397 16 18.4489 16 18.25V9.75C16 9.55109 16.079 9.36032 16.2197 9.21967C16.3603 9.07902 16.5511 9 16.75 9C16.9489 9 17.1397 9.07902 17.2803 9.21967C17.421 9.36032 17.5 9.55109 17.5 9.75V18.25Z" fill="#586EB9"/>
</g>
<defs>
<clipPath id="clip0_3604_1005">
<rect width="12" height="12" fill="white" transform="translate(8 8)"/>
</clipPath>
</defs>
</svg>
