<svg width="12" height="12" viewBox="0 0 12 12" fill="none" xmlns="http://www.w3.org/2000/svg">
<g clip-path="url(#clip0_1_54)">
<path d="M3.25 -3.05176e-05C2.78587 -3.05176e-05 2.34075 0.184344 2.01256 0.512533C1.68437 0.840721 1.5 1.28584 1.5 1.74997V10.25C1.5 10.7141 1.68437 11.1592 2.01256 11.4874C2.34075 11.8156 2.78587 12 3.25 12C3.71413 12 4.15925 11.8156 4.48744 11.4874C4.81563 11.1592 5 10.7141 5 10.25V1.74997C5 1.28584 4.81563 0.840721 4.48744 0.512533C4.15925 0.184344 3.71413 -3.05176e-05 3.25 -3.05176e-05ZM4 10.25C4 10.4489 3.92098 10.6396 3.78033 10.7803C3.63968 10.921 3.44891 11 3.25 11C3.05109 11 2.86032 10.921 2.71967 10.7803C2.57902 10.6396 2.5 10.4489 2.5 10.25V1.74997C2.5 1.55106 2.57902 1.36029 2.71967 1.21964C2.86032 1.07899 3.05109 0.999969 3.25 0.999969C3.44891 0.999969 3.63968 1.07899 3.78033 1.21964C3.92098 1.36029 4 1.55106 4 1.74997V10.25Z" fill="#586EB9"/>
<path d="M8.75008 -3.05176e-05C8.28595 -3.05176e-05 7.84083 0.184344 7.51264 0.512533C7.18445 0.840721 7.00008 1.28584 7.00008 1.74997V10.25C7.00008 10.7141 7.18445 11.1592 7.51264 11.4874C7.84083 11.8156 8.28595 12 8.75008 12C9.21421 12 9.65932 11.8156 9.98751 11.4874C10.3157 11.1592 10.5001 10.7141 10.5001 10.25V1.74997C10.5001 1.28584 10.3157 0.840721 9.98751 0.512533C9.65932 0.184344 9.21421 -3.05176e-05 8.75008 -3.05176e-05ZM9.50008 10.25C9.50008 10.4489 9.42106 10.6396 9.28041 10.7803C9.13975 10.921 8.94899 11 8.75008 11C8.55116 11 8.3604 10.921 8.21975 10.7803C8.07909 10.6396 8.00008 10.4489 8.00008 10.25V1.74997C8.00008 1.55106 8.07909 1.36029 8.21975 1.21964C8.3604 1.07899 8.55116 0.999969 8.75008 0.999969C8.94899 0.999969 9.13975 1.07899 9.28041 1.21964C9.42106 1.36029 9.50008 1.55106 9.50008 1.74997V10.25Z" fill="#586EB9"/>
</g>
<defs>
<clipPath id="clip0_1_54">
<rect width="12" height="12" fill="white"/>
</clipPath>
</defs>
</svg>
