<svg width="12" height="12" viewBox="0 0 12 12" fill="none" xmlns="http://www.w3.org/2000/svg">
<g clip-path="url(#clip0_1_57)">
<path d="M10.247 3.98378L5.477 0.48378C5.10444 0.210973 4.66361 0.0466772 4.20338 0.00911167C3.74315 -0.0284539 3.28151 0.0621784 2.86965 0.270959C2.45778 0.479739 2.11179 0.798509 1.87003 1.19192C1.62827 1.58534 1.50019 2.03802 1.5 2.49978V9.49978C1.50008 9.96175 1.62817 10.4147 1.87004 10.8083C2.11191 11.2018 2.45811 11.5207 2.87021 11.7295C3.28231 11.9383 3.74421 12.0288 4.20462 11.9909C4.66504 11.9531 5.10598 11.7885 5.4785 11.5153L10.2485 8.01528C10.5651 7.78308 10.8226 7.47956 11.0001 7.12931C11.1776 6.77906 11.2701 6.39193 11.2701 5.99928C11.2701 5.60663 11.1776 5.2195 11.0001 4.86925C10.8226 4.519 10.5651 4.21548 10.2485 3.98328L10.247 3.98378ZM9.655 7.20878L4.885 10.7088C4.66151 10.8721 4.39718 10.9704 4.12129 10.9928C3.84539 11.0151 3.56868 10.9608 3.32178 10.8356C3.07489 10.7104 2.86744 10.5194 2.7224 10.2836C2.57736 10.0479 2.50039 9.77658 2.5 9.49978V2.49978C2.49723 2.22245 2.57275 1.94997 2.71789 1.71364C2.86303 1.47731 3.0719 1.28673 3.3205 1.16378C3.53195 1.05623 3.76577 1.00004 4.003 0.99978C4.32095 1.00099 4.63011 1.10422 4.885 1.29428L9.655 4.79428C9.84475 4.93363 9.99903 5.11568 10.1054 5.32572C10.2117 5.53575 10.2671 5.76786 10.2671 6.00328C10.2671 6.2387 10.2117 6.47081 10.1054 6.68085C9.99903 6.89088 9.84475 7.07293 9.655 7.21228V7.20878Z" fill="#586EB9"/>
</g>
<defs>
<clipPath id="clip0_1_57">
<rect width="12" height="12" fill="white"/>
</clipPath>
</defs>
</svg>
