<svg width="28" height="28" viewBox="0 0 28 28" fill="none" xmlns="http://www.w3.org/2000/svg">
<rect width="28" height="28" rx="5" fill="#1D1E42"/>
<path d="M18.247 11.9839L13.477 8.48393C13.1044 8.21113 12.6636 8.04683 12.2034 8.00926C11.7432 7.9717 11.2815 8.06233 10.8696 8.27111C10.4578 8.47989 10.1118 8.79866 9.87003 9.19208C9.62827 9.58549 9.50019 10.0382 9.5 10.4999V17.4999C9.50008 17.9619 9.62817 18.4148 9.87004 18.8084C10.1119 19.202 10.4581 19.5209 10.8702 19.7296C11.2823 19.9384 11.7442 20.0289 12.2046 19.9911C12.665 19.9533 13.106 19.7886 13.4785 19.5154L18.2485 16.0154C18.5651 15.7832 18.8226 15.4797 19.0001 15.1295C19.1776 14.7792 19.2701 14.3921 19.2701 13.9994C19.2701 13.6068 19.1776 13.2197 19.0001 12.8694C18.8226 12.5192 18.5651 12.2156 18.2485 11.9834L18.247 11.9839ZM17.655 15.2089L12.885 18.7089C12.6615 18.8722 12.3972 18.9705 12.1213 18.9929C11.8454 19.0153 11.5687 18.9609 11.3218 18.8357C11.0749 18.7106 10.8674 18.5196 10.7224 18.2838C10.5774 18.048 10.5004 17.7767 10.5 17.4999V10.4999C10.4972 10.2226 10.5727 9.95012 10.7179 9.71379C10.863 9.47747 11.0719 9.28688 11.3205 9.16393C11.5319 9.05638 11.7658 9.00019 12.003 8.99993C12.3209 9.00115 12.6301 9.10438 12.885 9.29443L17.655 12.7944C17.8447 12.9338 17.999 13.1158 18.1054 13.3259C18.2117 13.5359 18.2671 13.768 18.2671 14.0034C18.2671 14.2389 18.2117 14.471 18.1054 14.681C17.999 14.891 17.8447 15.0731 17.655 15.2124V15.2089Z" fill="#586EB9"/>
</svg>
