<svg width="28" height="28" viewBox="0 0 28 28" fill="none" xmlns="http://www.w3.org/2000/svg">
<rect width="28" height="28" rx="5" fill="#1D1E42"/>
<g clip-path="url(#clip0_3604_1165)">
<path d="M18.5 10H16.95C16.834 9.43571 16.5269 8.92867 16.0806 8.56436C15.6343 8.20005 15.0761 8.00073 14.5 8H13.5C12.9239 8.00073 12.3657 8.20005 11.9194 8.56436C11.4731 8.92867 11.166 9.43571 11.05 10H9.5C9.36739 10 9.24021 10.0527 9.14645 10.1464C9.05268 10.2402 9 10.3674 9 10.5C9 10.6326 9.05268 10.7598 9.14645 10.8536C9.24021 10.9473 9.36739 11 9.5 11H10V17.5C10.0008 18.1628 10.2644 18.7982 10.7331 19.2669C11.2018 19.7356 11.8372 19.9992 12.5 20H15.5C16.1628 19.9992 16.7982 19.7356 17.2669 19.2669C17.7356 18.7982 17.9992 18.1628 18 17.5V11H18.5C18.6326 11 18.7598 10.9473 18.8536 10.8536C18.9473 10.7598 19 10.6326 19 10.5C19 10.3674 18.9473 10.2402 18.8536 10.1464C18.7598 10.0527 18.6326 10 18.5 10ZM13.5 9H14.5C14.8101 9.00038 15.1126 9.09669 15.3658 9.27572C15.619 9.45476 15.8107 9.70775 15.9145 10H12.0855C12.1893 9.70775 12.381 9.45476 12.6342 9.27572C12.8874 9.09669 13.1899 9.00038 13.5 9ZM17 17.5C17 17.8978 16.842 18.2794 16.5607 18.5607C16.2794 18.842 15.8978 19 15.5 19H12.5C12.1022 19 11.7206 18.842 11.4393 18.5607C11.158 18.2794 11 17.8978 11 17.5V11H17V17.5Z" fill="#586EB9"/>
<path d="M13 17C13.1326 17 13.2598 16.9473 13.3536 16.8535C13.4473 16.7598 13.5 16.6326 13.5 16.5V13.5C13.5 13.3674 13.4473 13.2402 13.3536 13.1464C13.2598 13.0527 13.1326 13 13 13C12.8674 13 12.7402 13.0527 12.6464 13.1464C12.5527 13.2402 12.5 13.3674 12.5 13.5V16.5C12.5 16.6326 12.5527 16.7598 12.6464 16.8535C12.7402 16.9473 12.8674 17 13 17Z" fill="#586EB9"/>
<path d="M15 17C15.1326 17 15.2598 16.9473 15.3536 16.8535C15.4473 16.7598 15.5 16.6326 15.5 16.5V13.5C15.5 13.3674 15.4473 13.2402 15.3536 13.1464C15.2598 13.0527 15.1326 13 15 13C14.8674 13 14.7402 13.0527 14.6464 13.1464C14.5527 13.2402 14.5 13.3674 14.5 13.5V16.5C14.5 16.6326 14.5527 16.7598 14.6464 16.8535C14.7402 16.9473 14.8674 17 15 17Z" fill="#586EB9"/>
</g>
<defs>
<clipPath id="clip0_3604_1165">
<rect width="12" height="12" fill="white" transform="translate(8 8)"/>
</clipPath>
</defs>
</svg>
