<svg width="17" height="17" viewBox="0 0 17 17" fill="none" xmlns="http://www.w3.org/2000/svg">
<path d="M5.81542 3.74717C5.74903 3.81302 5.69633 3.89136 5.66037 3.97768C5.62441 4.064 5.6059 4.15658 5.6059 4.25009C5.6059 4.3436 5.62441 4.43618 5.66037 4.5225C5.69633 4.60882 5.74903 4.68716 5.81542 4.75301L9.05958 7.99717C9.12597 8.06302 9.17867 8.14136 9.21463 8.22768C9.25059 8.314 9.2691 8.40658 9.2691 8.50009C9.2691 8.5936 9.25059 8.68618 9.21463 8.7725C9.17867 8.85882 9.12597 8.93716 9.05958 9.00301L5.81542 12.2472C5.74903 12.313 5.69633 12.3914 5.66037 12.4777C5.62441 12.564 5.6059 12.6566 5.6059 12.7501C5.6059 12.8436 5.62441 12.9362 5.66037 13.0225C5.69633 13.1088 5.74903 13.1872 5.81542 13.253C5.94813 13.3849 6.12766 13.459 6.31479 13.459C6.50192 13.459 6.68145 13.3849 6.81417 13.253L10.0654 10.0018C10.4634 9.60332 10.6869 9.06322 10.6869 8.50009C10.6869 7.93696 10.4634 7.39686 10.0654 6.99842L6.81417 3.74717C6.68145 3.61525 6.50192 3.54119 6.31479 3.54119C6.12766 3.54119 5.94813 3.61525 5.81542 3.74717Z" fill="#586EB9"/>
</svg>
