<svg width="12" height="7" viewBox="0 0 12 7" fill="none" xmlns="http://www.w3.org/2000/svg">
<path d="M11.5917 0.841225C11.5142 0.763118 11.422 0.701122 11.3205 0.658815C11.2189 0.616508 11.11 0.594727 11 0.594727C10.89 0.594727 10.7811 0.616508 10.6795 0.658815C10.578 0.701122 10.4858 0.763118 10.4083 0.841225L6.59168 4.65788C6.51421 4.73599 6.42204 4.79799 6.32049 4.84029C6.21894 4.8826 6.11002 4.90438 6.00001 4.90438C5.89 4.90438 5.78108 4.8826 5.67953 4.84029C5.57798 4.79799 5.48581 4.73599 5.40834 4.65788L1.59168 0.841225C1.51421 0.763118 1.42204 0.701122 1.32049 0.658815C1.21894 0.616508 1.11002 0.594727 1.00001 0.594727C0.889999 0.594727 0.781078 0.616508 0.679529 0.658815C0.577979 0.701122 0.485812 0.763118 0.408343 0.841225C0.253134 0.99736 0.166016 1.20857 0.166016 1.42872C0.166016 1.64888 0.253134 1.86009 0.408343 2.01622L4.23334 5.84122C4.70209 6.30938 5.33751 6.57235 6.00001 6.57235C6.66251 6.57235 7.29792 6.30938 7.76668 5.84122L11.5917 2.01622C11.7469 1.86009 11.834 1.64888 11.834 1.42872C11.834 1.20857 11.7469 0.99736 11.5917 0.841225Z" fill="#586EB9"/>
</svg>
