<svg width="21" height="21" viewBox="0 0 21 21" fill="none" xmlns="http://www.w3.org/2000/svg">
<g clip-path="url(#clip0_1_95)">
<path d="M10.5001 7.00053C9.80786 7.00053 9.13117 7.20581 8.5556 7.59039C7.98003 7.97498 7.53142 8.5216 7.26651 9.16114C7.00161 9.80068 6.9323 10.5044 7.06734 11.1834C7.20239 11.8623 7.53574 12.4859 8.02522 12.9754C8.5147 13.4649 9.13834 13.7982 9.81728 13.9333C10.4962 14.0683 11.1999 13.999 11.8395 13.7341C12.479 13.4692 13.0257 13.0206 13.4102 12.445C13.7948 11.8695 14.0001 11.1928 14.0001 10.5005C14.0001 9.57228 13.6313 8.68204 12.975 8.02566C12.3186 7.36928 11.4284 7.00053 10.5001 7.00053ZM10.5001 12.2505C10.154 12.2505 9.81563 12.1479 9.52785 11.9556C9.24006 11.7633 9.01576 11.49 8.8833 11.1702C8.75085 10.8505 8.71619 10.4986 8.78372 10.1591C8.85124 9.81966 9.01791 9.50784 9.26266 9.2631C9.5074 9.01836 9.81922 8.85168 10.1587 8.78416C10.4982 8.71664 10.85 8.75129 11.1698 8.88374C11.4896 9.0162 11.7629 9.2405 11.9552 9.52829C12.1475 9.81607 12.2501 10.1544 12.2501 10.5005C12.2501 10.9647 12.0657 11.4098 11.7375 11.738C11.4093 12.0662 10.9642 12.2505 10.5001 12.2505Z" fill="#586EB9"/>
<path d="M18.6323 12.1625L18.2438 11.9385C18.4187 10.9869 18.4187 10.0114 18.2438 9.05975L18.6323 8.83575C18.931 8.66339 19.1929 8.43387 19.403 8.1603C19.613 7.88673 19.7672 7.57447 19.8565 7.24134C19.9459 6.90821 19.9688 6.56074 19.9239 6.21876C19.879 5.87679 19.7672 5.54701 19.5948 5.24825C19.4224 4.94949 19.1929 4.68761 18.9193 4.47755C18.6458 4.2675 18.3335 4.11338 18.0004 4.024C17.6672 3.93463 17.3198 3.91174 16.9778 3.95665C16.6358 4.00156 16.306 4.11339 16.0073 4.28575L15.6179 4.51063C14.8825 3.8823 14.0374 3.39522 13.125 3.07387V2.625C13.125 1.92881 12.8485 1.26113 12.3562 0.768845C11.8639 0.276562 11.1962 0 10.5 0C9.80384 0 9.13617 0.276562 8.64388 0.768845C8.1516 1.26113 7.87504 1.92881 7.87504 2.625V3.07387C6.96275 3.39637 6.1179 3.88465 5.38304 4.51412L4.99191 4.2875C4.38855 3.9394 3.67161 3.84525 2.99882 4.02575C2.32604 4.20626 1.75251 4.64663 1.40441 5.25C1.05632 5.85337 0.962163 6.5703 1.14267 7.24309C1.32317 7.91588 1.76355 8.4894 2.36691 8.8375L2.75541 9.0615C2.58051 10.0131 2.58051 10.9886 2.75541 11.9403L2.36691 12.1643C1.76355 12.5123 1.32317 13.0859 1.14267 13.7587C0.962163 14.4314 1.05632 15.1484 1.40441 15.7518C1.75251 16.3551 2.32604 16.7955 2.99882 16.976C3.67161 17.1565 4.38855 17.0623 4.99191 16.7142L5.38129 16.4894C6.11696 17.1178 6.9624 17.6049 7.87504 17.9261V18.375C7.87504 19.0712 8.1516 19.7389 8.64388 20.2312C9.13617 20.7234 9.80384 21 10.5 21C11.1962 21 11.8639 20.7234 12.3562 20.2312C12.8485 19.7389 13.125 19.0712 13.125 18.375V17.9261C14.0373 17.6036 14.8822 17.1153 15.617 16.4859L16.0082 16.7116C16.6115 17.0597 17.3285 17.1539 18.0013 16.9734C18.674 16.7929 19.2476 16.3525 19.5957 15.7491C19.9438 15.1458 20.0379 14.4288 19.8574 13.756C19.6769 13.0832 19.2365 12.5097 18.6332 12.1616L18.6323 12.1625ZM16.4028 8.8585C16.6991 9.93218 16.6991 11.0661 16.4028 12.1397C16.3511 12.3266 16.3629 12.5254 16.4363 12.7048C16.5098 12.8843 16.6408 13.0342 16.8088 13.1311L17.7573 13.6789C17.9584 13.7949 18.1051 13.9861 18.1653 14.2103C18.2254 14.4345 18.194 14.6735 18.078 14.8746C17.9619 15.0756 17.7708 15.2224 17.5465 15.2825C17.3223 15.3427 17.0834 15.3113 16.8823 15.1952L15.932 14.6458C15.7639 14.5484 15.5682 14.5097 15.3758 14.5359C15.1833 14.562 15.005 14.6515 14.8689 14.7901C14.0901 15.5852 13.1089 16.1525 12.0313 16.4307C11.8432 16.4791 11.6765 16.5887 11.5576 16.7422C11.4386 16.8957 11.3741 17.0844 11.3742 17.2786V18.375C11.3742 18.6071 11.282 18.8296 11.1179 18.9937C10.9538 19.1578 10.7312 19.25 10.4992 19.25C10.2671 19.25 10.0445 19.1578 9.88044 18.9937C9.71635 18.8296 9.62416 18.6071 9.62416 18.375V17.2795C9.62426 17.0853 9.55974 16.8966 9.44077 16.7431C9.3218 16.5895 9.15513 16.48 8.96704 16.4316C7.88934 16.1522 6.90845 15.5837 6.13029 14.7875C5.99425 14.6488 5.81593 14.5594 5.62345 14.5333C5.43097 14.5071 5.23526 14.5458 5.06716 14.6431L4.11866 15.1917C4.01911 15.2501 3.909 15.2882 3.79467 15.3038C3.68034 15.3195 3.56405 15.3123 3.45248 15.2828C3.34092 15.2533 3.2363 15.2021 3.14463 15.132C3.05296 15.0619 2.97607 14.9743 2.91837 14.8744C2.86067 14.7745 2.82331 14.6641 2.80844 14.5497C2.79356 14.4353 2.80147 14.319 2.8317 14.2076C2.86194 14.0963 2.9139 13.992 2.9846 13.9008C3.05531 13.8096 3.14335 13.7333 3.24366 13.6763L4.19216 13.1285C4.36012 13.0316 4.49113 12.8816 4.56462 12.7022C4.6381 12.5228 4.6499 12.324 4.59816 12.1371C4.30185 11.0634 4.30185 9.92956 4.59816 8.85588C4.64897 8.6694 4.63661 8.47134 4.563 8.29263C4.48939 8.11392 4.35869 7.9646 4.19129 7.868L3.24279 7.32025C3.0417 7.20422 2.89495 7.01306 2.83481 6.78882C2.77467 6.56459 2.80607 6.32565 2.9221 6.12456C3.03813 5.92348 3.22929 5.77672 3.45353 5.71658C3.67776 5.65644 3.9167 5.68784 4.11779 5.80387L5.06804 6.35337C5.23567 6.45095 5.43097 6.49006 5.62325 6.46456C5.81553 6.43906 5.99388 6.3504 6.13029 6.2125C6.90911 5.41743 7.89029 4.85014 8.96791 4.57188C9.15659 4.52337 9.32369 4.41328 9.44272 4.25906C9.56175 4.10484 9.62591 3.91531 9.62504 3.7205V2.625C9.62504 2.39294 9.71723 2.17038 9.88132 2.00628C10.0454 1.84219 10.268 1.75 10.5 1.75C10.7321 1.75 10.9547 1.84219 11.1188 2.00628C11.2829 2.17038 11.375 2.39294 11.375 2.625V3.7205C11.3749 3.91471 11.4395 4.10344 11.5584 4.25695C11.6774 4.41045 11.8441 4.52002 12.0322 4.56838C13.1102 4.84763 14.0914 5.41615 14.8698 6.2125C15.0058 6.35116 15.1841 6.44061 15.3766 6.46675C15.5691 6.49289 15.7648 6.45423 15.9329 6.35687L16.8814 5.80825C16.981 5.74989 17.0911 5.7118 17.2054 5.69616C17.3197 5.68053 17.436 5.68767 17.5476 5.71716C17.6592 5.74666 17.7638 5.79793 17.8554 5.86802C17.9471 5.93812 18.024 6.02565 18.0817 6.12559C18.1394 6.22552 18.1768 6.33588 18.1916 6.45032C18.2065 6.56475 18.1986 6.68099 18.1684 6.79236C18.1381 6.90372 18.0862 7.008 18.0155 7.0992C17.9448 7.1904 17.8567 7.26672 17.7564 7.32375L16.8079 7.8715C16.6408 7.96837 16.5105 8.11779 16.4372 8.29648C16.3639 8.47517 16.3518 8.67309 16.4028 8.85938V8.8585Z" fill="#586EB9"/>
</g>
<defs>
<clipPath id="clip0_1_95">
<rect width="21" height="21" fill="white"/>
</clipPath>
</defs>
</svg>
