<svg width="47" height="47" viewBox="0 0 47 47" fill="none" xmlns="http://www.w3.org/2000/svg">
<rect width="47" height="47" rx="10" fill="#1D1E42"/>
<g clip-path="url(#clip0_3604_1166)">
<path d="M23.5 20.001C22.8078 20.001 22.1311 20.2062 21.5555 20.5908C20.9799 20.9754 20.5313 21.522 20.2664 22.1616C20.0015 22.8011 19.9322 23.5049 20.0673 24.1838C20.2023 24.8627 20.5356 25.4864 21.0251 25.9759C21.5146 26.4653 22.1383 26.7987 22.8172 26.9337C23.4961 27.0688 24.1999 26.9995 24.8394 26.7346C25.4789 26.4696 26.0256 26.021 26.4101 25.4455C26.7947 24.8699 27 24.1932 27 23.501C27 22.5727 26.6313 21.6825 25.9749 21.0261C25.3185 20.3697 24.4283 20.001 23.5 20.001ZM23.5 25.251C23.1539 25.251 22.8155 25.1483 22.5278 24.956C22.24 24.7638 22.0157 24.4904 21.8832 24.1707C21.7508 23.8509 21.7161 23.499 21.7836 23.1596C21.8512 22.8201 22.0178 22.5083 22.2626 22.2635C22.5073 22.0188 22.8191 21.8521 23.1586 21.7846C23.4981 21.7171 23.8499 21.7517 24.1697 21.8842C24.4895 22.0166 24.7628 22.2409 24.9551 22.5287C25.1474 22.8165 25.25 23.1549 25.25 23.501C25.25 23.9651 25.0656 24.4102 24.7374 24.7384C24.4092 25.0666 23.9641 25.251 23.5 25.251Z" fill="#586EB9"/>
<path d="M31.6321 25.1625L31.2436 24.9385C31.4185 23.9869 31.4185 23.0114 31.2436 22.0597L31.6321 21.8357C31.9308 21.6634 32.1927 21.4339 32.4028 21.1603C32.6128 20.8867 32.7669 20.5745 32.8563 20.2413C32.9457 19.9082 32.9686 19.5607 32.9237 19.2188C32.8788 18.8768 32.7669 18.547 32.5946 18.2483C32.4222 17.9495 32.1927 17.6876 31.9191 17.4776C31.6456 17.2675 31.3333 17.1134 31.0002 17.024C30.667 16.9346 30.3196 16.9117 29.9776 16.9567C29.6356 17.0016 29.3058 17.1134 29.0071 17.2857L28.6177 17.5106C27.8823 16.8823 27.0372 16.3952 26.1248 16.0739V15.625C26.1248 14.9288 25.8483 14.2611 25.356 13.7688C24.8637 13.2766 24.196 13 23.4998 13C22.8036 13 22.136 13.2766 21.6437 13.7688C21.1514 14.2611 20.8748 14.9288 20.8748 15.625V16.0739C19.9625 16.3964 19.1177 16.8846 18.3828 17.5141L17.9917 17.2875C17.3883 16.9394 16.6714 16.8453 15.9986 17.0258C15.3258 17.2063 14.7523 17.6466 14.4042 18.25C14.0561 18.8534 13.9619 19.5703 14.1425 20.2431C14.323 20.9159 14.7633 21.4894 15.3667 21.8375L15.7552 22.0615C15.5803 23.0131 15.5803 23.9886 15.7552 24.9403L15.3667 25.1643C14.7633 25.5123 14.323 26.0859 14.1425 26.7587C13.9619 27.4314 14.0561 28.1484 14.4042 28.7518C14.7523 29.3551 15.3258 29.7955 15.9986 29.976C16.6714 30.1565 17.3883 30.0623 17.9917 29.7142L18.3811 29.4894C19.1167 30.1178 19.9622 30.6049 20.8748 30.9261V31.375C20.8748 32.0712 21.1514 32.7389 21.6437 33.2312C22.136 33.7234 22.8036 34 23.4998 34C24.196 34 24.8637 33.7234 25.356 33.2312C25.8483 32.7389 26.1248 32.0712 26.1248 31.375V30.9261C27.0371 30.6036 27.882 30.1153 28.6168 29.4859L29.008 29.7116C29.6113 30.0597 30.3283 30.1539 31.001 29.9734C31.6738 29.7929 32.2474 29.3525 32.5955 28.7491C32.9435 28.1458 33.0377 27.4288 32.8572 26.756C32.6767 26.0832 32.2363 25.5097 31.633 25.1616L31.6321 25.1625ZM29.4026 21.8585C29.6989 22.9322 29.6989 24.0661 29.4026 25.1397C29.3508 25.3266 29.3626 25.5254 29.4361 25.7048C29.5096 25.8843 29.6406 26.0342 29.8086 26.1311L30.7571 26.6789C30.9582 26.7949 31.1049 26.9861 31.1651 27.2103C31.2252 27.4345 31.1938 27.6735 31.0778 27.8746C30.9617 28.0756 30.7706 28.2224 30.5463 28.2825C30.3221 28.3427 30.0832 28.3113 29.8821 28.1952L28.9318 27.6458C28.7637 27.5484 28.568 27.5097 28.3755 27.5359C28.1831 27.562 28.0047 27.6515 27.8687 27.7901C27.0899 28.5852 26.1087 29.1525 25.0311 29.4307C24.843 29.4791 24.6763 29.5887 24.5573 29.7422C24.4384 29.8957 24.3739 30.0844 24.3739 30.2786V31.375C24.3739 31.6071 24.2818 31.8296 24.1177 31.9937C23.9536 32.1578 23.731 32.25 23.4989 32.25C23.2669 32.25 23.0443 32.1578 22.8802 31.9937C22.7161 31.8296 22.6239 31.6071 22.6239 31.375V30.2795C22.624 30.0853 22.5595 29.8966 22.4406 29.7431C22.3216 29.5895 22.1549 29.48 21.9668 29.4316C20.8891 29.1522 19.9082 28.5837 19.1301 27.7875C18.994 27.6488 18.8157 27.5594 18.6232 27.5333C18.4308 27.5071 18.235 27.5458 18.0669 27.6431L17.1184 28.1917C17.0189 28.2501 16.9088 28.2882 16.7945 28.3038C16.6801 28.3195 16.5638 28.3123 16.4523 28.2828C16.3407 28.2533 16.2361 28.2021 16.1444 28.132C16.0528 28.0619 15.9759 27.9743 15.9182 27.8744C15.8605 27.7745 15.8231 27.6641 15.8082 27.5497C15.7933 27.4353 15.8013 27.319 15.8315 27.2076C15.8617 27.0963 15.9137 26.992 15.9844 26.9008C16.0551 26.8096 16.1431 26.7333 16.2434 26.6763L17.1919 26.1285C17.3599 26.0316 17.4909 25.8816 17.5644 25.7022C17.6379 25.5228 17.6497 25.324 17.5979 25.1371C17.3016 24.0634 17.3016 22.9296 17.5979 21.8559C17.6488 21.6694 17.6364 21.4713 17.5628 21.2926C17.4892 21.1139 17.3585 20.9646 17.1911 20.868L16.2426 20.3203C16.0415 20.2042 15.8947 20.0131 15.8346 19.7888C15.7745 19.5646 15.8059 19.3256 15.9219 19.1246C16.0379 18.9235 16.2291 18.7767 16.4533 18.7166C16.6775 18.6564 16.9165 18.6878 17.1176 18.8039L18.0678 19.3534C18.2355 19.4509 18.4308 19.4901 18.623 19.4646C18.8153 19.4391 18.9937 19.3504 19.1301 19.2125C19.9089 18.4174 20.8901 17.8501 21.9677 17.5719C22.1564 17.5234 22.3235 17.4133 22.4425 17.2591C22.5615 17.1048 22.6257 16.9153 22.6248 16.7205V15.625C22.6248 15.3929 22.717 15.1704 22.8811 15.0063C23.0452 14.8422 23.2678 14.75 23.4998 14.75C23.7319 14.75 23.9544 14.8422 24.1185 15.0063C24.2826 15.1704 24.3748 15.3929 24.3748 15.625V16.7205C24.3747 16.9147 24.4392 17.1034 24.5582 17.2569C24.6772 17.4105 24.8439 17.52 25.0319 17.5684C26.11 17.8476 27.0912 18.4161 27.8696 19.2125C28.0056 19.3512 28.1839 19.4406 28.3764 19.4667C28.5689 19.4929 28.7646 19.4542 28.9327 19.3569L29.8812 18.8082C29.9807 18.7499 30.0909 18.7118 30.2052 18.6962C30.3195 18.6805 30.4358 18.6877 30.5474 18.7172C30.6589 18.7467 30.7636 18.7979 30.8552 18.868C30.9469 18.9381 31.0238 19.0257 31.0815 19.1256C31.1392 19.2255 31.1766 19.3359 31.1914 19.4503C31.2063 19.5647 31.1984 19.681 31.1682 19.7924C31.1379 19.9037 31.086 20.008 31.0153 20.0992C30.9446 20.1904 30.8565 20.2667 30.7562 20.3238L29.8077 20.8715C29.6406 20.9684 29.5103 21.1178 29.437 21.2965C29.3637 21.4752 29.3516 21.6731 29.4026 21.8594V21.8585Z" fill="#586EB9"/>
</g>
<defs>
<clipPath id="clip0_3604_1166">
<rect width="21" height="21" fill="white" transform="translate(13 13)"/>
</clipPath>
</defs>
</svg>
