<svg width="12" height="12" viewBox="0 0 12 12" fill="none" xmlns="http://www.w3.org/2000/svg">
<g clip-path="url(#clip0_1_60)">
<path d="M10.5 2H8.94995C8.83391 1.43571 8.52686 0.928673 8.08058 0.564359C7.63429 0.200045 7.07606 0.000727262 6.49995 0L5.49995 0C4.92385 0.000727262 4.36561 0.200045 3.91933 0.564359C3.47304 0.928673 3.166 1.43571 3.04995 2H1.49995C1.36735 2 1.24017 2.05268 1.1464 2.14645C1.05263 2.24021 0.999954 2.36739 0.999954 2.5C0.999954 2.63261 1.05263 2.75979 1.1464 2.85355C1.24017 2.94732 1.36735 3 1.49995 3H1.99995V9.5C2.00075 10.1628 2.2644 10.7982 2.73306 11.2669C3.20173 11.7356 3.83716 11.9992 4.49995 12H7.49995C8.16275 11.9992 8.79818 11.7356 9.26684 11.2669C9.73551 10.7982 9.99916 10.1628 9.99995 9.5V3H10.5C10.6326 3 10.7597 2.94732 10.8535 2.85355C10.9473 2.75979 11 2.63261 11 2.5C11 2.36739 10.9473 2.24021 10.8535 2.14645C10.7597 2.05268 10.6326 2 10.5 2ZM5.49995 1H6.49995C6.81009 1.00038 7.11252 1.09669 7.36576 1.27572C7.619 1.45476 7.81066 1.70775 7.91445 2H4.08545C4.18925 1.70775 4.3809 1.45476 4.63415 1.27572C4.88739 1.09669 5.18982 1.00038 5.49995 1ZM8.99995 9.5C8.99995 9.89782 8.84192 10.2794 8.56061 10.5607C8.27931 10.842 7.89778 11 7.49995 11H4.49995C4.10213 11 3.7206 10.842 3.43929 10.5607C3.15799 10.2794 2.99995 9.89782 2.99995 9.5V3H8.99995V9.5Z" fill="#586EB9"/>
<path d="M5 8.99969C5.13261 8.99969 5.25978 8.94701 5.35355 8.85324C5.44732 8.75947 5.5 8.6323 5.5 8.49969V5.49969C5.5 5.36709 5.44732 5.23991 5.35355 5.14614C5.25978 5.05237 5.13261 4.99969 5 4.99969C4.86739 4.99969 4.74021 5.05237 4.64645 5.14614C4.55268 5.23991 4.5 5.36709 4.5 5.49969V8.49969C4.5 8.6323 4.55268 8.75947 4.64645 8.85324C4.74021 8.94701 4.86739 8.99969 5 8.99969Z" fill="#586EB9"/>
<path d="M6.99993 8.99969C7.13254 8.99969 7.25971 8.94701 7.35348 8.85324C7.44725 8.75947 7.49993 8.6323 7.49993 8.49969V5.49969C7.49993 5.36709 7.44725 5.23991 7.35348 5.14614C7.25971 5.05237 7.13254 4.99969 6.99993 4.99969C6.86732 4.99969 6.74014 5.05237 6.64637 5.14614C6.5526 5.23991 6.49992 5.36709 6.49992 5.49969V8.49969C6.49992 8.6323 6.5526 8.75947 6.64637 8.85324C6.74014 8.94701 6.86732 8.99969 6.99993 8.99969Z" fill="#586EB9"/>
</g>
<defs>
<clipPath id="clip0_1_60">
<rect width="12" height="12" fill="white"/>
</clipPath>
</defs>
</svg>
