<svg width="28" height="28" viewBox="0 0 28 28" fill="none" xmlns="http://www.w3.org/2000/svg">
<rect y="0.000976562" width="28" height="28" rx="5" fill="#1D1E42"/>
<g clip-path="url(#clip0_3603_976)">
<path d="M14.4966 16.2186L14.5001 8.49963C14.5001 8.36702 14.4474 8.23985 14.3536 8.14608C14.2599 8.05231 14.1327 7.99963 14.0001 7.99963C13.8675 7.99963 13.7403 8.05231 13.6465 8.14608C13.5528 8.23985 13.5001 8.36702 13.5001 8.49963L13.4966 16.2101L12.0406 14.7536C11.9468 14.6599 11.8197 14.6072 11.6871 14.6072C11.5545 14.6072 11.4274 14.6599 11.3336 14.7536C11.2399 14.8474 11.1872 14.9746 11.1872 15.1071C11.1872 15.2397 11.2399 15.3669 11.3336 15.4606L12.9391 17.0681C13.0784 17.2075 13.2438 17.3181 13.4258 17.3935C13.6079 17.469 13.803 17.5078 14.0001 17.5078C14.1972 17.5078 14.3923 17.469 14.5743 17.3935C14.7564 17.3181 14.9218 17.2075 15.0611 17.0681L16.6666 15.4621C16.7603 15.3684 16.813 15.2412 16.813 15.1086C16.813 14.9761 16.7603 14.8489 16.6666 14.7551C16.5728 14.6614 16.4457 14.6087 16.3131 14.6087C16.1805 14.6087 16.0534 14.6614 15.9596 14.7551L14.4966 16.2186Z" fill="#586EB9"/>
<path d="M19 16.5V18.5C19 18.6326 18.9473 18.7598 18.8536 18.8535C18.7598 18.9473 18.6326 19 18.5 19H9.5C9.36739 19 9.24021 18.9473 9.14645 18.8535C9.05268 18.7598 9 18.6326 9 18.5V16.5C9 16.3674 8.94732 16.2402 8.85355 16.1464C8.75979 16.0527 8.63261 16 8.5 16C8.36739 16 8.24021 16.0527 8.14645 16.1464C8.05268 16.2402 8 16.3674 8 16.5V18.5C8 18.8978 8.15804 19.2794 8.43934 19.5607C8.72064 19.842 9.10218 20 9.5 20H18.5C18.8978 20 19.2794 19.842 19.5607 19.5607C19.842 19.2794 20 18.8978 20 18.5V16.5C20 16.3674 19.9473 16.2402 19.8536 16.1464C19.7598 16.0527 19.6326 16 19.5 16C19.3674 16 19.2402 16.0527 19.1464 16.1464C19.0527 16.2402 19 16.3674 19 16.5Z" fill="#586EB9"/>
</g>
<defs>
<clipPath id="clip0_3603_976">
<rect width="12" height="12" fill="white" transform="translate(8 8)"/>
</clipPath>
</defs>
</svg>
