<svg width="12" height="12" viewBox="0 0 12 12" fill="none" xmlns="http://www.w3.org/2000/svg">
<g clip-path="url(#clip0_1_101)">
<path d="M5.5034 1.28907L5.4999 9.00806C5.4999 9.14067 5.55258 9.26785 5.64635 9.36162C5.74012 9.45539 5.8673 9.50806 5.9999 9.50806C6.13251 9.50806 6.25969 9.45539 6.35346 9.36162C6.44723 9.26785 6.4999 9.14067 6.4999 9.00806L6.5034 1.29757L7.9594 2.75407C8.05317 2.8478 8.18032 2.90046 8.3129 2.90046C8.44549 2.90046 8.57264 2.8478 8.6664 2.75407C8.76014 2.6603 8.8128 2.53315 8.8128 2.40057C8.8128 2.26798 8.76014 2.14083 8.6664 2.04707L7.0609 0.439565C6.9216 0.300176 6.7562 0.1896 6.57415 0.114158C6.3921 0.0387161 6.19697 -0.000114441 5.9999 -0.000114441C5.80284 -0.000114441 5.60771 0.0387161 5.42566 0.114158C5.24361 0.1896 5.07821 0.300176 4.93891 0.439565L3.3334 2.04557C3.23967 2.13933 3.18701 2.26648 3.18701 2.39907C3.18701 2.53165 3.23967 2.6588 3.3334 2.75257C3.42717 2.8463 3.55432 2.89896 3.6869 2.89896C3.81949 2.89896 3.94664 2.8463 4.04041 2.75257L5.5034 1.28907Z" fill="#586EB9"/>
<path d="M11 8.49969V10.4997C11 10.6323 10.9473 10.7595 10.8536 10.8532C10.7598 10.947 10.6326 10.9997 10.5 10.9997H1.5C1.36739 10.9997 1.24021 10.947 1.14645 10.8532C1.05268 10.7595 1 10.6323 1 10.4997V8.49969C1 8.36709 0.947322 8.23991 0.853553 8.14614C0.759785 8.05237 0.632608 7.99969 0.5 7.99969C0.367392 7.99969 0.240215 8.05237 0.146447 8.14614C0.0526784 8.23991 0 8.36709 0 8.49969L0 10.4997C0 10.8975 0.158035 11.279 0.43934 11.5603C0.720644 11.8417 1.10218 11.9997 1.5 11.9997H10.5C10.8978 11.9997 11.2794 11.8417 11.5607 11.5603C11.842 11.279 12 10.8975 12 10.4997V8.49969C12 8.36709 11.9473 8.23991 11.8536 8.14614C11.7598 8.05237 11.6326 7.99969 11.5 7.99969C11.3674 7.99969 11.2402 8.05237 11.1464 8.14614C11.0527 8.23991 11 8.36709 11 8.49969Z" fill="#586EB9"/>
</g>
<defs>
<clipPath id="clip0_1_101">
<rect width="12" height="12" fill="white"/>
</clipPath>
</defs>
</svg>
